# xmcd
#
# Track frame offsets: 
#        150
#        26827
#        48128
#        81672
#        110758
#        131457
#        166767
#
# Disc length: 2769 seconds
#
# Revision: 0
# Processed by: cddbd v1.5.2PL0 Copyright (c) Steve Scherf et al.
# Submitted via: ExactAudioCopy v0.99pb5
#
DISCID=570acf07
DTITLE=Laith Al-Saadi - 2012-01-06  - Magic Bag - Anti-Freeze Blues Fe
DTITLE=stival - Ferndale, Michigan
DYEAR=2012
DGENRE=Blues
TTITLE0=Chains
TTITLE1=No One Left To Blame
TTITLE2=Morning Light
TTITLE3=Show You What It Means
TTITLE4=Gone, Gone, Babe I'm Gone
TTITLE5=Mystified
TTITLE6=Make It Through The Night
EXTD=
EXTT0=
EXTT1=
EXTT2=
EXTT3=
EXTT4=
EXTT5=
EXTT6=
PLAYORDER=
